{
    "streams": [
        {
            "index": 0,
            "codec_name": "hevc",
            "codec_long_name": "H.265 / HEVC (High Efficiency Video Coding)",
            "profile": "Main 10",
            "codec_type": "video",
            "codec_tag_string": "[0][0][0][0]",
            "codec_tag": "0x0000",
            "width": 1920,
            "height": 816,
            "coded_width": 1920,
            "coded_height": 816,
            "closed_captions": 0,
            "film_grain": 0,
            "has_b_frames": 2,
            "sample_aspect_ratio": "1:1",
            "display_aspect_ratio": "40:17",
            "pix_fmt": "yuv420p10le",
            "level": 120,
            "color_range": "tv",
            "chroma_location": "left",
            "refs": 1,
            "r_frame_rate": "24000/1001",
            "avg_frame_rate": "24000/1001",
            "time_base": "1/1000",
            "start_pts": 0,
            "start_time": "0.000000",
            "extradata_size": 2113,
            "disposition": {
                "default": 1,
                "dub": 0,
                "original": 0,
                "comment": 0,
                "lyrics": 0,
                "karaoke": 0,
                "forced": 0,
                "hearing_impaired": 0,
                "visual_impaired": 0,
                "clean_effects": 0,
                "attached_pic": 0,
                "timed_thumbnails": 0,
                "non_diegetic": 0,
                "captions": 0,
                "descriptions": 0,
                "metadata": 0,
                "dependent": 0,
                "still_image": 0
            },
            "tags": {
                "BPS": "3795413",
                "BPS-eng": "3795413",
                "DURATION-eng": "02:19:51.050000000",
                "NUMBER_OF_FRAMES": "201184",
                "NUMBER_OF_FRAMES-eng": "201184",
                "NUMBER_OF_BYTES": "3980938265",
                "NUMBER_OF_BYTES-eng": "3980938265",
                "_STATISTICS_WRITING_APP": "mkvmerge v20.0.0 ('I Am The Sun') 64-bit",
                "_STATISTICS_WRITING_APP-eng": "mkvmerge v20.0.0 ('I Am The Sun') 64-bit",
                "_STATISTICS_WRITING_DATE_UTC": "2018-11-26 18:33:32",
                "_STATISTICS_WRITING_DATE_UTC-eng": "2018-11-26 18:33:32",
                "_STATISTICS_TAGS": "BPS DURATION NUMBER_OF_FRAMES NUMBER_OF_BYTES",
                "_STATISTICS_TAGS-eng": "BPS DURATION NUMBER_OF_FRAMES NUMBER_OF_BYTES",
                "DURATION": "02:19:51.049000000"
            }
        },
        {
            "index": 1,
            "codec_name": "aac",
            "codec_long_name": "AAC (Advanced Audio Coding)",
            "profile": "HE-AAC",
            "codec_type": "audio",
            "codec_tag_string": "[0][0][0][0]",
            "codec_tag": "0x0000",
            "sample_fmt": "fltp",
            "sample_rate": "48000",
            "channels": 6,
            "channel_layout": "5.1",
            "bits_per_sample": 0,
            "initial_padding": 0,
            "r_frame_rate": "0/0",
            "avg_frame_rate": "0/0",
            "time_base": "1/1000",
            "start_pts": 40,
            "start_time": "0.040000",
            "extradata_size": 5,
            "disposition": {
                "default": 0,
                "dub": 0,
                "original": 0,
                "comment": 0,
                "lyrics": 0,
                "karaoke": 0,
                "forced": 0,
                "hearing_impaired": 0,
                "visual_impaired": 0,
                "clean_effects": 0,
                "attached_pic": 0,
                "timed_thumbnails": 0,
                "non_diegetic": 0,
                "captions": 0,
                "descriptions": 0,
                "metadata": 0,
                "dependent": 0,
                "still_image": 0
            },
            "tags": {
                "language": "fre",
                "BPS": "191999",
                "BPS-eng": "191999",
                "DURATION-eng": "02:19:51.083000000",
                "NUMBER_OF_FRAMES": "196666",
                "NUMBER_OF_FRAMES-eng": "196666",
                "NUMBER_OF_BYTES": "201385984",
                "NUMBER_OF_BYTES-eng": "201385984",
                "_STATISTICS_WRITING_APP": "mkvmerge v20.0.0 ('I Am The Sun') 64-bit",
                "_STATISTICS_WRITING_APP-eng": "mkvmerge v20.0.0 ('I Am The Sun') 64-bit",
                "_STATISTICS_WRITING_DATE_UTC": "2018-11-26 18:33:32",
                "_STATISTICS_WRITING_DATE_UTC-eng": "2018-11-26 18:33:32",
                "_STATISTICS_TAGS": "BPS DURATION NUMBER_OF_FRAMES NUMBER_OF_BYTES",
                "_STATISTICS_TAGS-eng": "BPS DURATION NUMBER_OF_FRAMES NUMBER_OF_BYTES",
                "DURATION": "02:19:51.122000000"
            }
        },
        {
            "index": 2,
            "codec_name": "dvd_subtitle",
            "codec_long_name": "DVD subtitles",
            "codec_type": "subtitle",
            "codec_tag_string": "[0][0][0][0]",
            "codec_tag": "0x0000",
            "width": 1920,
            "height": 1080,
            "r_frame_rate": "0/0",
            "avg_frame_rate": "0/0",
            "time_base": "1/1000",
            "start_pts": 0,
            "start_time": "0.000000",
            "duration_ts": 8391122,
            "duration": "8391.122000",
            "extradata_size": 348,
            "disposition": {
                "default": 1,
                "dub": 0,
                "original": 0,
                "comment": 0,
                "lyrics": 0,
                "karaoke": 0,
                "forced": 0,
                "hearing_impaired": 0,
                "visual_impaired": 0,
                "clean_effects": 0,
                "attached_pic": 0,
                "timed_thumbnails": 0,
                "non_diegetic": 0,
                "captions": 0,
                "descriptions": 0,
                "metadata": 0,
                "dependent": 0,
                "still_image": 0
            },
            "tags": {
                "language": "fre",
                "BPS": "11958",
                "BPS-eng": "11958",
                "DURATION-eng": "02:19:05.660000000",
                "NUMBER_OF_FRAMES": "1849",
                "NUMBER_OF_FRAMES-eng": "1849",
                "NUMBER_OF_BYTES": "12475390",
                "NUMBER_OF_BYTES-eng": "12475390",
                "_STATISTICS_WRITING_APP": "mkvmerge v20.0.0 ('I Am The Sun') 64-bit",
                "_STATISTICS_WRITING_APP-eng": "mkvmerge v20.0.0 ('I Am The Sun') 64-bit",
                "_STATISTICS_WRITING_DATE_UTC": "2018-11-26 18:33:32",
                "_STATISTICS_WRITING_DATE_UTC-eng": "2018-11-26 18:33:32",
                "_STATISTICS_TAGS": "BPS DURATION NUMBER_OF_FRAMES NUMBER_OF_BYTES",
                "_STATISTICS_TAGS-eng": "BPS DURATION NUMBER_OF_FRAMES NUMBER_OF_BYTES",
                "DURATION": "02:19:48.953000000"
            }
        },
        {
            "index": 3,
            "codec_name": "dvd_subtitle",
            "codec_long_name": "DVD subtitles",
            "codec_type": "subtitle",
            "codec_tag_string": "[0][0][0][0]",
            "codec_tag": "0x0000",
            "width": 1920,
            "height": 1080,
            "r_frame_rate": "0/0",
            "avg_frame_rate": "0/0",
            "time_base": "1/1000",
            "start_pts": 0,
            "start_time": "0.000000",
            "duration_ts": 8391122,
            "duration": "8391.122000",
            "extradata_size": 348,
            "disposition": {
                "default": 0,
                "dub": 0,
                "original": 0,
                "comment": 0,
                "lyrics": 0,
                "karaoke": 0,
                "forced": 0,
                "hearing_impaired": 0,
                "visual_impaired": 0,
                "clean_effects": 0,
                "attached_pic": 0,
                "timed_thumbnails": 0,
                "non_diegetic": 0,
                "captions": 0,
                "descriptions": 0,
                "metadata": 0,
                "dependent": 0,
                "still_image": 0
            },
            "tags": {
                "language": "fre",
                "title": "Commentary by director Ron Howard",
                "BPS": "14905",
                "BPS-eng": "14905",
                "DURATION-eng": "02:19:44.239000000",
                "NUMBER_OF_FRAMES": "2072",
                "NUMBER_OF_FRAMES-eng": "2072",
                "NUMBER_OF_BYTES": "15621220",
                "NUMBER_OF_BYTES-eng": "15621220",
                "_STATISTICS_WRITING_APP": "mkvmerge v20.0.0 ('I Am The Sun') 64-bit",
                "_STATISTICS_WRITING_APP-eng": "mkvmerge v20.0.0 ('I Am The Sun') 64-bit",
                "_STATISTICS_WRITING_DATE_UTC": "2018-11-26 18:33:32",
                "_STATISTICS_WRITING_DATE_UTC-eng": "2018-11-26 18:33:32",
                "_STATISTICS_TAGS": "BPS DURATION NUMBER_OF_FRAMES NUMBER_OF_BYTES",
                "_STATISTICS_TAGS-eng": "BPS DURATION NUMBER_OF_FRAMES NUMBER_OF_BYTES",
                "DURATION": "02:19:49.161000000"
            }
        },
        {
            "index": 4,
            "codec_name": "dvd_subtitle",
            "codec_long_name": "DVD subtitles",
            "codec_type": "subtitle",
            "codec_tag_string": "[0][0][0][0]",
            "codec_tag": "0x0000",
            "width": 1920,
            "height": 1080,
            "r_frame_rate": "0/0",
            "avg_frame_rate": "0/0",
            "time_base": "1/1000",
            "start_pts": 0,
            "start_time": "0.000000",
            "duration_ts": 8391122,
            "duration": "8391.122000",
            "extradata_size": 348,
            "disposition": {
                "default": 0,
                "dub": 0,
                "original": 0,
                "comment": 0,
                "lyrics": 0,
                "karaoke": 0,
                "forced": 0,
                "hearing_impaired": 0,
                "visual_impaired": 0,
                "clean_effects": 0,
                "attached_pic": 0,
                "timed_thumbnails": 0,
                "non_diegetic": 0,
                "captions": 0,
                "descriptions": 0,
                "metadata": 0,
                "dependent": 0,
                "still_image": 0
            },
            "tags": {
                "language": "fre",
                "title": "Commentary by Jim and Marilyn Lovell",
                "BPS": "15564",
                "BPS-eng": "15564",
                "DURATION-eng": "02:19:44.449000000",
                "NUMBER_OF_FRAMES": "2192",
                "NUMBER_OF_FRAMES-eng": "2192",
                "NUMBER_OF_BYTES": "16312199",
                "NUMBER_OF_BYTES-eng": "16312199",
                "_STATISTICS_WRITING_APP": "mkvmerge v20.0.0 ('I Am The Sun') 64-bit",
                "_STATISTICS_WRITING_APP-eng": "mkvmerge v20.0.0 ('I Am The Sun') 64-bit",
                "_STATISTICS_WRITING_DATE_UTC": "2018-11-26 18:33:32",
                "_STATISTICS_WRITING_DATE_UTC-eng": "2018-11-26 18:33:32",
                "_STATISTICS_TAGS": "BPS DURATION NUMBER_OF_FRAMES NUMBER_OF_BYTES",
                "_STATISTICS_TAGS-eng": "BPS DURATION NUMBER_OF_FRAMES NUMBER_OF_BYTES",
                "DURATION": "02:19:49.120000000"
            }
        }
    ],
    "format": {
        "filename": "Films/Apollo 13 (1995).mkv",
        "nb_streams": 5,
        "nb_programs": 0,
        "format_name": "matroska,webm",
        "format_long_name": "Matroska / WebM",
        "start_time": "0.000000",
        "duration": "8391.122000",
        "size": "4229925950",
        "bit_rate": "4032763",
        "probe_score": 100,
        "tags": {
            "title": "Apollo 13",
            "creation_time": "2018-11-26T18:33:32.000000Z",
            "ENCODER": "Lavf60.16.100"
        }
    }
}
